<svg xmlns="http://www.w3.org/2000/svg" width="19.003" height="44.331" viewBox="0 0 19.003 44.331">
  <g id="Grupo_196" data-name="Grupo 196" transform="translate(-31.231 -4.905)">
    <path id="Trazado_69" data-name="Trazado 69" d="M43.751,15.147c.743.03,1.486.027,2.229.043.743-.014,1.486-.013,2.229-.042l1.115-.051c.371-.031.743-.048,1.114-.09v-.022l-4.459-.011-4.459.011v.022c.372.041.743.059,1.115.089Z" transform="translate(-5.247 -5.134)" fill="#fff"/>
    <path id="Trazado_70" data-name="Trazado 70" d="M41.255,54.485c.6.016,1.21.02,1.814.029.6-.01,1.21-.012,1.814-.03s1.21-.042,1.815-.092a30.6,30.6,0,0,0,3.628-.427V53.9l-7.257-.032-7.258.032v.065a30.105,30.105,0,0,0,3.629.428C40.046,54.445,40.65,54.454,41.255,54.485Z" transform="translate(-2.336 -24.966)" fill="#fff"/>
    <path id="Trazado_71" data-name="Trazado 71" d="M34.768,80.35v.064a34.519,34.519,0,0,0,3.885.429c.647.051,1.3.061,1.942.092.647.015,1.295.02,1.942.029.647-.01,1.295-.012,1.943-.031s1.294-.041,1.942-.092a34.732,34.732,0,0,0,3.885-.427V80.35l-7.769-.033Z" transform="translate(-1.803 -38.452)" fill="#fff"/>
    <path id="Trazado_72" data-name="Trazado 72" d="M41.934,40.566c.94.051,1.88.059,2.82.066s1.88-.014,2.82-.067l1.41-.079c.47-.047.94-.075,1.41-.139v-.034L44.753,40.3l-5.639.017v.033c.47.065.94.093,1.41.14Z" transform="translate(-4.019 -18.046)" fill="#fff"/>
    <path id="Trazado_73" data-name="Trazado 73" d="M50.093,42.921c-.056-.411-.111-.724-.132-.838,0-.475-.022-4.393-.05-8.39-.015-2.131-.033-4.286-.051-5.952-.01-.833-.02-1.544-.03-2.071,0-.263-.01-.48-.015-.645,0-.082-.005-.152-.008-.209s0-.1-.01-.148h0a7.274,7.274,0,0,0-.336-1.483,3.692,3.692,0,0,0-.36-.769,1.786,1.786,0,0,0-.466-.5c0-.034.011-.075.021-.123a6.562,6.562,0,0,1,.19-.655c.13-.394.3-.863.432-1.36a6.046,6.046,0,0,0,.244-1.555,3.117,3.117,0,0,0-.075-.7h0c-.056-.241-.141-.534-.249-.875-.377-1.191-1.034-2.949-1.6-4.421-.366-.953-.693-1.781-.878-2.247l.023-.019a1.7,1.7,0,0,0,.329-.374,1.145,1.145,0,0,0,.186-.613.871.871,0,0,0-.113-.428,1.054,1.054,0,0,0-.258-.3,1.164,1.164,0,0,0,.083-.113.89.89,0,0,0,.127-.353h0a12.452,12.452,0,0,0,.1-1.384,3.828,3.828,0,0,0-.025-.466,1.508,1.508,0,0,0-.045-.225.8.8,0,0,0-.131-.273h0A.614.614,0,0,0,46.8,5.27a.965.965,0,0,0-.232-.091,3.36,3.36,0,0,0-.436-.077c-.292-.037-.665-.066-1.091-.091-1.277-.074-3.027-.106-4.2-.106h-.214c-.986,0-2.377.023-3.552.074-.588.025-1.121.058-1.532.1-.206.021-.38.044-.529.074a1.543,1.543,0,0,0-.219.058.789.789,0,0,0-.13.059.622.622,0,0,0-.188.162h0a.819.819,0,0,0-.132.273,1.834,1.834,0,0,0-.056.337c-.009.113-.012.231-.012.353a12.465,12.465,0,0,0,.095,1.384.893.893,0,0,0,.127.353,1.144,1.144,0,0,0,.081.114l-.02.015a1.052,1.052,0,0,0-.237.281.875.875,0,0,0-.114.428,1.148,1.148,0,0,0,.186.613,1.712,1.712,0,0,0,.352.393c-.226.569-.663,1.677-1.125,2.892-.334.878-.68,1.81-.97,2.635-.145.413-.275.8-.383,1.14s-.194.636-.249.876a3.092,3.092,0,0,0-.074.7,5.372,5.372,0,0,0,.153,1.195c.134.582.329,1.139.485,1.606.077.233.145.443.191.613a2.208,2.208,0,0,1,.058.279,1.77,1.77,0,0,0-.466.5,4.368,4.368,0,0,0-.485,1.171,7.491,7.491,0,0,0-.211,1.081v0c-.005.049-.008.089-.011.148-.01.219-.02.64-.03,1.226-.065,3.946-.122,15.229-.125,16.041-.021.114-.076.427-.132.838a13.929,13.929,0,0,0-.142,1.79,5.759,5.759,0,0,0,.027.583,2.835,2.835,0,0,0,.1.539v0a3.611,3.611,0,0,0,1.064,1.644,6.21,6.21,0,0,0,2.933,1.365c.538.1,1.168.171,1.817.225,1.1.093,2.261.134,3.057.153v.015h1v-.015c.462-.011,1.046-.03,1.671-.061.721-.036,1.5-.091,2.2-.173.354-.041.691-.089,1-.145a6.215,6.215,0,0,0,2.933-1.365,3.616,3.616,0,0,0,1.064-1.644,2.913,2.913,0,0,0,.1-.539,5.757,5.757,0,0,0,.027-.582A14.119,14.119,0,0,0,50.093,42.921ZM35.592,6.157c.545-.06,1.441-.1,2.376-.133s1.918-.042,2.658-.042h.214c.969,0,2.353.023,3.505.073.576.025,1.1.057,1.469.1.113.011.211.024.292.036,0,.062.006.132.006.21a11.446,11.446,0,0,1-.079,1.187.472.472,0,0,1-.072.055,1.638,1.638,0,0,1-.277.137c-.044.017-.081.03-.107.039l-.028.009h-.006l-1.023.3H36.948l-1.023-.3h0a2.066,2.066,0,0,1-.333-.137.816.816,0,0,1-.158-.1A11.464,11.464,0,0,1,35.355,6.4c0-.077,0-.149.005-.21C35.427,6.176,35.5,6.167,35.592,6.157Zm-.432.069ZM49.137,45.184a1.886,1.886,0,0,1-.061.336,2.533,2.533,0,0,1-.755,1.158,4.861,4.861,0,0,1-1.726.94,5.174,5.174,0,0,1-.68.165c-.482.089-1.086.159-1.712.212-.941.079-1.936.121-2.694.142-.3.009-.567.014-.777.017-.534-.009-1.428-.03-2.383-.084-.671-.038-1.372-.092-1.992-.168-.31-.037-.6-.081-.853-.129a4.947,4.947,0,0,1-.629-.155,4.866,4.866,0,0,1-1.726-.94,2.533,2.533,0,0,1-.755-1.159h0a1.832,1.832,0,0,1-.061-.336c-.014-.139-.021-.3-.021-.473a13.006,13.006,0,0,1,.131-1.645c.033-.244.067-.453.091-.6.013-.074.023-.133.03-.172,0-.02.006-.035.008-.045l0-.014.009-.049v-.049s0-.261,0-.719c.008-1.6.03-5.619.059-9.311.014-1.846.03-3.611.047-4.952.008-.67.017-1.236.026-1.65,0-.207.009-.377.013-.5,0-.062,0-.114.006-.151l0-.045v-.015h0a6.247,6.247,0,0,1,.282-1.25A2.665,2.665,0,0,1,33.276,23a.621.621,0,0,1,.2-.221.765.765,0,0,0,.22-.164.811.811,0,0,0,.181-.326,1.077,1.077,0,0,0,.039-.3,2.052,2.052,0,0,0-.05-.418,7.519,7.519,0,0,0-.221-.77c-.135-.409-.293-.859-.416-1.307a4.991,4.991,0,0,1-.206-1.271,2.045,2.045,0,0,1,.047-.456c.044-.192.124-.468.226-.793.362-1.143,1.017-2.9,1.579-4.359.281-.731.54-1.389.727-1.865l.223-.562.082-.2.184-.458L35.654,9.3l0,0a1.341,1.341,0,0,1-.248-.178.6.6,0,0,1-.072-.08l.025-.013a1.735,1.735,0,0,1,.332-.115c.052-.013.1-.023.128-.029l.034-.006h.006l2.092-.322h5.575l2.091.322h0a2.254,2.254,0,0,1,.418.115.937.937,0,0,1,.108.05c-.01.013-.019.025-.032.04a1.152,1.152,0,0,1-.2.163c-.031.021-.058.037-.075.047l-.018.01h0l-.439.223.183.458s.038.1.106.266c.238.6.839,2.115,1.422,3.67.292.777.579,1.563.814,2.246s.419,1.265.5,1.6a2.04,2.04,0,0,1,.048.456,4.343,4.343,0,0,1-.126.952c-.117.507-.3,1.032-.457,1.508-.079.238-.153.464-.21.678a2.561,2.561,0,0,0-.1.629,1,1,0,0,0,.079.408.777.777,0,0,0,.141.217.758.758,0,0,0,.22.164.616.616,0,0,1,.2.221,3.39,3.39,0,0,1,.354.876,6.417,6.417,0,0,1,.18.919v0h0c0,.007,0,.044.005.095.009.2.02.634.029,1.222.033,2.061.064,6.07.087,9.561.011,1.746.021,3.363.027,4.543,0,.59.006,1.071.008,1.4s0,.519,0,.52v.049l.009.049,0,.014c.014.074.08.439.141.911a12.644,12.644,0,0,1,.12,1.553C49.158,44.883,49.151,45.044,49.137,45.184Z" transform="translate(0 0)" fill="#fff"/>
    <path id="Trazado_74" data-name="Trazado 74" d="M63.6,10.773h0v0Z" transform="translate(-16.504 -2.992)" fill="#fff"/>
    <path id="Trazado_75" data-name="Trazado 75" d="M68.376,30.557l.01.043h0Z" transform="translate(-18.94 -13.08)" fill="#fff"/>
  </g>
</svg>
