<svg id="Grupo_389" data-name="Grupo 389" xmlns="http://www.w3.org/2000/svg" xmlns:xlink="http://www.w3.org/1999/xlink" width="83.057" height="90.595" viewBox="0 0 83.057 90.595">
  <defs>
    <clipPath id="clip-path">
      <path id="Trazado_87" data-name="Trazado 87" d="M639.228,400.939l-2.3.906-3.9,5.927,8.562-3.274.958-2.422,1.114-2.817Z" transform="translate(-633.029 -399.259)" fill="none"/>
    </clipPath>
    <clipPath id="clip-path-2">
      <path id="Trazado_90" data-name="Trazado 90" d="M731.913,329.717l-1.453,1.858-7.624,9.2,4.039-1.4,3.026-1.042,9.859-11.137Z" transform="translate(-722.836 -327.198)" fill="none"/>
    </clipPath>
    <clipPath id="clip-path-3">
      <path id="Trazado_93" data-name="Trazado 93" d="M647.833,352.65l-2.335,2.36-26.512,27.352-2.543,2.51-4.63,11.675,45.947-47.331Z" transform="translate(-611.813 -349.215)" fill="none"/>
    </clipPath>
  </defs>
  <path id="Trazado_79" data-name="Trazado 79" d="M556.7,284.379,540.98,300.492h14.613V312.87a20.369,20.369,0,0,1-9.025,1.931,23.821,23.821,0,0,1-14.753-4.9l-9.36,9.328,5.2-13.393a29.134,29.134,0,0,1-5.209-16.692c0-13.667,9.284-23.723,22.058-23.723a24.83,24.83,0,0,1,8.925,1.522l18.11-5.886-6.379,7.985,9.712-3.48-6.323,6.473-.786.813H576.4V243.915H562.746v4.274a50.025,50.025,0,0,0-18.11-3.131c-27.223,0-46.826,18.947-46.826,45.508,0,25.783,18.832,43.7,45.919,43.7a59.1,59.1,0,0,0,34.184-10.315l-.008-39.576Z" transform="translate(-497.811 -243.783)" fill="#fff"/>
  <path id="Trazado_80" data-name="Trazado 80" d="M662,335.031l-8.646,3.016,6.909-8.316-25.746,8.54L624.363,353.7l6.2-2.373s-9.4,23.687-10.793,27.19Zm-26.652,4.379,15.5-5.13-6.965,8.4,3.692-1.253-.016.017,2.451-.843.722-.246-24.361,25.122,7.779-19.6-4.059,1.534,3.708-5.655Z" transform="translate(-590.993 -309.353)" fill="#fff"/>
  <path id="Trazado_81" data-name="Trazado 81" d="M835.3,245.043a1.718,1.718,0,1,1,1.724,1.7,1.693,1.693,0,0,1-1.724-1.7m1.724,1.416a1.411,1.411,0,1,0-1.381-1.416,1.366,1.366,0,0,0,1.381,1.416m-.359-.435h-.3v-1.953h.742c.463,0,.69.17.69.556a.508.508,0,0,1-.507.537l.555.86h-.331l-.515-.847h-.339Zm.351-1.1c.251,0,.479-.018.479-.318,0-.242-.223-.287-.427-.287h-.4v.605Z" transform="translate(-755.678 -243.354)" fill="#fff"/>
  <path id="Trazado_82" data-name="Trazado 82" d="M553.59,284.627l-15.735,16.121h17.783v12.388a20.406,20.406,0,0,1-9.037,1.932,23.828,23.828,0,0,1-14.761-4.9,20.429,20.429,0,0,1-2.375-2.021,17.752,17.752,0,0,1-1.788-2.044,29.179,29.179,0,0,1-5.209-16.706c0-13.674,9.292-23.736,22.07-23.736a24.81,24.81,0,0,1,8.929,1.522l3.62,1.376-1.269,4.956h7.153l.978-.421h12.5V244.14H562.79v4.275a50.076,50.076,0,0,0-18.122-3.135c-27.235,0-46.857,18.963-46.857,45.536,0,25.8,18.848,43.734,45.951,43.734a59.139,59.139,0,0,0,34.2-10.32l0-39.6Z" transform="translate(-497.811 -243.955)" fill="#fff"/>
  <path id="Trazado_83" data-name="Trazado 83" d="M644.976,347.04l20.872-6.911-7.592,9.128,8.219-2.829-33.446,34.455,9.52-23.987-5.432,2.071Z" transform="translate(-601.128 -317.298)" fill="#ec6b00"/>
  <path id="Trazado_84" data-name="Trazado 84" d="M624.18,379.142l10.282-25.9-6.011,2.292,9.28-14.085,23.606-7.815-7.556,9.082,8.654-2.978Zm12.933-28.52-8.762,22.071,28.64-29.5-7.787,2.68,7.632-9.175L638.694,342.7l-6.435,9.77Z" transform="translate(-594.367 -312.331)" fill="#ec6b00"/>
  <g id="Grupo_380" data-name="Grupo 380" transform="translate(31.901 36.781)">
    <g id="Grupo_379" data-name="Grupo 379" clip-path="url(#clip-path)">
      <g id="Grupo_378" data-name="Grupo 378" transform="translate(2.183 -1.302)">
        <path id="Trazado_85" data-name="Trazado 85" d="M656.9,399.259l-4.435,1.68-2.112,3.208,5.433-2.071Z" transform="translate(-648.45 -397.956)" fill="#c8002d"/>
        <path id="Trazado_86" data-name="Trazado 86" d="M642.284,401.457l3.525-5.351,6.251-2.368-1.864,4.7Zm4.51-4.121-.7,1.064,2.954-1.126.367-.932Z" transform="translate(-642.284 -393.738)" fill="#c8002d"/>
      </g>
    </g>
  </g>
  <g id="Grupo_383" data-name="Grupo 383" transform="translate(53.088 19.781)">
    <g id="Grupo_382" data-name="Grupo 382" clip-path="url(#clip-path-2)">
      <g id="Grupo_381" data-name="Grupo 381" transform="translate(-2.283 1.518)">
        <path id="Trazado_88" data-name="Trazado 88" d="M722.836,350.653l4.039-1.4,7.592-9.128-4.008,1.326Z" transform="translate(-720.553 -338.597)" fill="#c8002d"/>
        <path id="Trazado_89" data-name="Trazado 89" d="M713.158,347.273l9.468-11.424,6.7-2.214-9.4,11.3ZM723.5,337.136l-5.78,6.973,1.313-.453,5.784-6.957Z" transform="translate(-713.158 -333.634)" fill="#c8002d"/>
      </g>
    </g>
  </g>
  <g id="Grupo_386" data-name="Grupo 386" transform="translate(26.895 24.975)">
    <g id="Grupo_385" data-name="Grupo 385" clip-path="url(#clip-path-3)">
      <g id="Grupo_384" data-name="Grupo 384" transform="translate(2.922 2.426)">
        <path id="Trazado_91" data-name="Trazado 91" d="M635.193,395.824l26.516-27.356,4.766-1.64-33.446,34.455Z" transform="translate(-630.945 -365.098)" fill="#c8002d"/>
        <path id="Trazado_92" data-name="Trazado 92" d="M624.2,398.9l3.708-9.2,26.644-27.483,7.9-2.72Zm4.886-8.266-.722,1.826L657,362.957l-1.628.559Z" transform="translate(-624.197 -359.497)" fill="#c8002d"/>
      </g>
    </g>
  </g>
  <g id="Grupo_388" data-name="Grupo 388" transform="translate(26.896 0.024)">
    <g id="Grupo_387" data-name="Grupo 387">
      <path id="Trazado_94" data-name="Trazado 94" d="M611.813,377.855c1.5-3.812,11.739-29.588,11.739-29.588l-6.75,2.58,11.049-16.8,28.017-9.3-7.516,9.058,9.408-3.287-45.947,47.331m9.093-30.636,5.433-2.071-9.52,23.987,33.446-34.455-8.219,2.829,7.592-9.128-20.872,6.911Z" transform="translate(-611.813 -305.573)"/>
      <path id="Trazado_95" data-name="Trazado 95" d="M835.281,245.149a1.72,1.72,0,1,1,1.724,1.7,1.694,1.694,0,0,1-1.724-1.7m1.724,1.417a1.414,1.414,0,1,0-1.381-1.417,1.37,1.37,0,0,0,1.381,1.417m-.359-.435h-.3v-1.956h.742c.463,0,.695.171.695.556a.509.509,0,0,1-.507.539l.555.861H837.5l-.515-.848h-.343Zm.355-1.1c.251,0,.475-.018.475-.319,0-.242-.22-.287-.427-.287h-.4v.605Z" transform="translate(-782.56 -243.457)" fill="#fff"/>
    </g>
  </g>
</svg>
