<svg xmlns="http://www.w3.org/2000/svg" width="30.083" height="33.309" viewBox="0 0 30.083 33.309">
  <g id="noun_account_2065956" transform="translate(0)">
    <path id="Trazado_34" data-name="Trazado 34" d="M82.7,0A7.74,7.74,0,1,1,75,7.7,7.695,7.695,0,0,1,82.7,0Zm0,2.058A5.671,5.671,0,0,0,77.058,7.7,5.637,5.637,0,1,0,82.7,2.058Z" transform="translate(-67.863)" fill="#fff"/>
    <path id="Trazado_35" data-name="Trazado 35" d="M15,200c8.406,0,15.225,6.213,15.038,13.586,0,.911-2.148.911-2.148,0,.093-6.379-5.6-11.68-12.89-11.68s-12.983,5.3-12.89,11.68c.093.911-2.148.911-2.148,0C-.223,206.213,6.6,200,15,200Z" transform="translate(0.041 -180.96)" fill="#fff"/>
  </g>
</svg>
